HIERARCHY
ROOT Hips
{
  OFFSET -43.3411 73.6987 0
  CHANNELS 6 Xposition Yposition Zposition Zrotation Xrotation Yrotation
  JOINT Bip01_Pelvis
  {
    OFFSET 0 0 0
    CHANNELS 6 Xposition Yposition Zposition Zrotation Xrotation Yrotation
    JOINT BN_Tail_01
    {
      OFFSET -18.6385 -9.591 -2.032e-005
      CHANNELS 6 Xposition Yposition Zposition Zrotation Xrotation Yrotation
      JOINT BN_Tail_02
      {
        OFFSET 20.9743 0 0
        CHANNELS 6 Xposition Yposition Zposition Zrotation Xrotation Yrotation
        JOINT BN_Tail_03
        {
          OFFSET 20.3015 0 0
          CHANNELS 6 Xposition Yposition Zposition Zrotation Xrotation Yrotation
          JOINT BN_Tail_04
          {
            OFFSET 21.6394 -9.91821e-005 0
            CHANNELS 6 Xposition Yposition Zposition Zrotation Xrotation Yrotation
            End Site
            {
              OFFSET 0 0 0
            }
          }
        }
      }
    }
    JOINT Bip01_Spine
    {
      OFFSET 22.1878 -0.659386 3.048e-005
      CHANNELS 6 Xposition Yposition Zposition Zrotation Xrotation Yrotation
      JOINT Bip01_R_Thigh
      {
        OFFSET -22.1873 0.677109 -17.1024
        CHANNELS 6 Xposition Yposition Zposition Zrotation Xrotation Yrotation
        JOINT Bip01_R_Calf
        {
          OFFSET 34.2647 0 0
          CHANNELS 6 Xposition Yposition Zposition Zrotation Xrotation Yrotation
          JOINT Bip01_R_HorseLink
          {
            OFFSET 20.4429 0 0
            CHANNELS 6 Xposition Yposition Zposition Zrotation Xrotation Yrotation
            JOINT Bip01_R_Foot
            {
              OFFSET 16.5673 0 0
              CHANNELS 6 Xposition Yposition Zposition Zrotation Xrotation Yrotation
              JOINT Bip01_R_Toe0
              {
                OFFSET 9.18784 6.94841 0
                CHANNELS 6 Xposition Yposition Zposition Zrotation Xrotation Yrotation
                JOINT Bip01_R_Toe0Nub
                {
                  OFFSET 1.01907 0 0
                  CHANNELS 6 Xposition Yposition Zposition Zrotation Xrotation Yrotation
                  End Site
                  {
                    OFFSET 0 0 0
                  }
                }
              }
            }
          }
        }
      }
      JOINT Bip01_L_Thigh
      {
        OFFSET -22.1873 0.67701 17.1024
        CHANNELS 6 Xposition Yposition Zposition Zrotation Xrotation Yrotation
        JOINT Bip01_L_Calf
        {
          OFFSET 34.2647 0 0
          CHANNELS 6 Xposition Yposition Zposition Zrotation Xrotation Yrotation
          JOINT Bip01_L_HorseLink
          {
            OFFSET 20.4429 0 0
            CHANNELS 6 Xposition Yposition Zposition Zrotation Xrotation Yrotation
            JOINT Bip01_L_Foot
            {
              OFFSET 16.5673 0 0
              CHANNELS 6 Xposition Yposition Zposition Zrotation Xrotation Yrotation
              JOINT Bip01_L_Toe0
              {
                OFFSET 9.18784 6.9484 1.14441e-005
                CHANNELS 6 Xposition Yposition Zposition Zrotation Xrotation Yrotation
                JOINT Bip01_L_Toe0Nub
                {
                  OFFSET 1.01907 0 0
                  CHANNELS 6 Xposition Yposition Zposition Zrotation Xrotation Yrotation
                  End Site
                  {
                    OFFSET 0 0 0
                  }
                }
              }
            }
          }
        }
      }
      JOINT Bip01_Spine1
      {
        OFFSET 39.3372 -0.0249863 0
        CHANNELS 6 Xposition Yposition Zposition Zrotation Xrotation Yrotation
        JOINT Bip01_Neck
        {
          OFFSET 34.2837 -15.5934 -4.318e-005
          CHANNELS 6 Xposition Yposition Zposition Zrotation Xrotation Yrotation
          JOINT Bip01_R_Clavicle
          {
            OFFSET -17.9452 -11.3131 -6.19287
            CHANNELS 6 Xposition Yposition Zposition Zrotation Xrotation Yrotation
            JOINT Bip01_R_UpperArm
            {
              OFFSET 17.4439 1.52588e-005 -2.28882e-005
              CHANNELS 6 Xposition Yposition Zposition Zrotation Xrotation Yrotation
              JOINT Bip01_R_Forearm
              {
                OFFSET 30.6251 1.14441e-005 0
                CHANNELS 6 Xposition Yposition Zposition Zrotation Xrotation Yrotation
                JOINT Bip01_R_Hand
                {
                  OFFSET 31.2039 0 0
                  CHANNELS 6 Xposition Yposition Zposition Zrotation Xrotation Yrotation
                  JOINT Bip01_R_Finger0
                  {
                    OFFSET 22.1039 0.255862 -0.37902
                    CHANNELS 6 Xposition Yposition Zposition Zrotation Xrotation Yrotation
                    JOINT Bip01_R_Finger0Nub
                    {
                      OFFSET 12.0552 0 0
                      CHANNELS 6 Xposition Yposition Zposition Zrotation Xrotation Yrotation
                      End Site
                      {
                        OFFSET 0 0 0
                      }
                    }
                  }
                }
              }
            }
          }
          JOINT Bip01_L_Clavicle
          {
            OFFSET -17.9452 -11.3132 6.19281
            CHANNELS 6 Xposition Yposition Zposition Zrotation Xrotation Yrotation
            JOINT Bip01_L_UpperArm
            {
              OFFSET 17.444 0 1.14441e-005
              CHANNELS 6 Xposition Yposition Zposition Zrotation Xrotation Yrotation
              JOINT Bip01_L_Forearm
              {
                OFFSET 30.6251 0 0
                CHANNELS 6 Xposition Yposition Zposition Zrotation Xrotation Yrotation
                JOINT Bip01_L_Hand
                {
                  OFFSET 31.204 0 0
                  CHANNELS 6 Xposition Yposition Zposition Zrotation Xrotation Yrotation
                  JOINT Bip01_L_Finger0
                  {
                    OFFSET 22.1039 0.255856 0.379024
                    CHANNELS 6 Xposition Yposition Zposition Zrotation Xrotation Yrotation
                    JOINT Bip01_L_Finger0Nub
                    {
                      OFFSET 12.0552 0 0
                      CHANNELS 6 Xposition Yposition Zposition Zrotation Xrotation Yrotation
                      End Site
                      {
                        OFFSET 0 0 0
                      }
                    }
                  }
                }
              }
            }
          }
          JOINT Bip01_Neck1
          {
            OFFSET 14.9359 -0.0106278 0
            CHANNELS 6 Xposition Yposition Zposition Zrotation Xrotation Yrotation
            JOINT Bip01_Head
            {
              OFFSET 14.3578 0.505501 0
              CHANNELS 6 Xposition Yposition Zposition Zrotation Xrotation Yrotation
              JOINT BN_Ear_L_01
              {
                OFFSET 3.76994 -2.35629 12.3444
                CHANNELS 6 Xposition Yposition Zposition Zrotation Xrotation Yrotation
                End Site
                {
                  OFFSET 0 0 0
                }
              }
              JOINT BN_Ear_R_01
              {
                OFFSET 3.76995 -2.35622 -12.3442
                CHANNELS 6 Xposition Yposition Zposition Zrotation Xrotation Yrotation
                End Site
                {
                  OFFSET 0 0 0
                }
              }
              JOINT BN_Mouth_01
              {
                OFFSET 11.8395 10.8645 1.27e-005
                CHANNELS 6 Xposition Yposition Zposition Zrotation Xrotation Yrotation
                JOINT BN_Tongue_01
                {
                  OFFSET 9.73752 3.21674 1.016e-005
                  CHANNELS 6 Xposition Yposition Zposition Zrotation Xrotation Yrotation
                  JOINT BN_Tongue_02
                  {
                    OFFSET 9.04304 0.053505 0
                    CHANNELS 6 Xposition Yposition Zposition Zrotation Xrotation Yrotation
                    End Site
                    {
                      OFFSET 0 0 0
                    }
                  }
                }
                JOINT BN_Beard_01
                {
                  OFFSET 6.93466 -0.751793 0
                  CHANNELS 6 Xposition Yposition Zposition Zrotation Xrotation Yrotation
                  JOINT BN_Beard_02
                  {
                    OFFSET 13.0965 1.52588e-005 0
                    CHANNELS 6 Xposition Yposition Zposition Zrotation Xrotation Yrotation
                    End Site
                    {
                      OFFSET 0 0 0
                    }
                  }
                }
              }
              JOINT Bip01_HeadNub
              {
                OFFSET 25.6158 0 0
                CHANNELS 6 Xposition Yposition Zposition Zrotation Xrotation Yrotation
                End Site
                {
                  OFFSET 0 0 0
                }
              }
            }
          }
        }
      }
    }
  }
}
MOTION
Frames:	4
Frame Time:	0.0333333
-42.5402 59.969 2.90486 93.6155 -81.9826 -177.564 -3.8147e-006 2.38419e-007 0 -94.9405 -8.76909 -84.0991 -18.6385 -9.591 -1.77636e-015 -50.0023 0.324059 -179.624 20.9743 7.6294e-006 4.76837e-007 28.7956 0.858617 -3.80278 20.3015 1.42109e-014 -1.77636e-015 11.0347 2.79101 3.77987 21.6394 -4.26326e-014 0 -0.879625 -0.460879 13.2 21.722 -4.03026 2.18637 -1.29767 8.19545 0.738271 -21.5563 0.755291 -19.8757 -70.3081 -7.3874 172.565 34.2647 -4.68958e-013 0.00122643 -48.1971 6.07473e-006 6.64956e-006 20.4429 -7.6294e-006 0.000873566 70.9103 -5.2633e-007 1.0834e-006 16.5673 1.42109e-014 -3.55271e-015 3.55399 5.73699 7.83581 9.18784 6.9484 2.32195e-009 91.3394 6.41812e-007 -1.40366e-007 1.01907 -2.38419e-007 -7.10543e-015 -4.8036e-008 7.66779e-009 -1.29877e-007 -21.9924 5.6267 13.978 -122.943 14.1073 -169.354 34.2647 -5.15143e-014 -3.8147e-006 -104.007 7.25449e-006 -2.04808e-005 20.4429 5.72205e-006 7.62939e-006 109.721 1.0421e-005 -1.05674e-005 16.5673 -1.90735e-006 -3.8147e-006 -32.7301 -4.81894 -6.14693 9.18784 6.9484 -1.17149e-009 89.9962 -1.28111e-006 1.45493e-006 1.01907 1.9984e-014 7.10543e-015 179.96 -1.00575e-005 -1.46144e-005 39.3396 -0.0248222 -0.00166893 4.42589 3.37912 -1.32496 34.2893 -15.5917 0.000302823 26.678 -0.684023 -1.02031 -21.1014 -3.00294 -5.85411 152.341 -37.283 129.183 17.4439 7.6294e-006 -9.94759e-014 45.007 15.7786 -106.844 30.6251 -7.6294e-006 3.55271e-015 -13.1537 -1.78026e-005 -5.48487e-006 31.204 -7.6294e-006 -5.72204e-006 -88.3981 75.1043 48.6669 22.1039 0.255849 -0.379044 -3.32361 9.95714 -44.5779 12.0552 3.81471e-006 5.96045e-007 179.96 -9.5513e-006 -1.24896e-005 -20.8804 -3.14982 6.53052 154.321 40.8107 -102.657 17.4439 7.6294e-006 2.84217e-014 38.1815 -41.2538 83.0378 30.6251 -7.10544e-015 0 -89.5914 -1.83084e-006 -9.24723e-006 31.2039 3.8147e-006 3.81469e-006 -156.809 -73.4495 -162.571 22.1039 0.255847 0.379024 -10.7625 6.07328 10.0774 12.0552 1.06582e-014 7.62938e-006 1.50421e-007 3.32775e-007 -6.75322e-007 14.9382 -0.0102158 2.94933e-010 12.354 -0.121506 6.89039 14.3577 0.505509 2.31818e-007 28.6738 0.999026 2.97578 3.76991 -2.3563 12.3444 -172.192 32.9744 -89.2228 3.76993 -2.35626 -12.3442 5.66782 30.729 98.8445 11.8395 10.8645 2.9099e-007 -174.973 -3.82098 178.922 9.73751 3.21675 5.92187e-007 -2.85749 2.27683e-007 6.45696e-008 2.55462 -1.1059 -0.153772 4.77834 -2.94618 -1.72235 6.93463 -0.751786 -5.03796e-007 -4.39048 -7.5218 9.3888 13.0966 0 -1.19209e-007 -12.3474 -0.659422 -7.11232 25.6158 0 -1.1921e-007 1.47529e-007 -1.35792e-008 -4.40031e-008 
-42.6266 59.9842 2.85916 93.6155 -81.9826 -177.564 -3.8147e-006 2.38419e-007 0 -94.9271 -8.85642 -84.0307 -18.6385 -9.591 1.77636e-015 -49.7726 0.325072 -179.021 20.9743 7.6294e-006 4.76837e-007 28.7258 0.836275 -4.4353 20.3015 1.42109e-014 0 11.6895 2.85278 3.02797 21.6394 -5.68434e-014 0 -0.323121 -0.403372 12.4029 21.7135 -4.06387 2.20983 -1.41751 8.1941 0.746895 -21.5507 0.741682 -19.9025 -70.4292 -7.2938 172.491 34.2647 -9.09495e-013 0.00122643 -48.4079 5.4938e-006 7.16843e-006 20.4429 -7.6294e-006 0.000873566 71.0563 -5.33066e-007 1.08732e-006 16.5673 -1.42109e-014 1.42109e-014 3.4621 5.75502 7.84274 9.18784 6.9484 2.34381e-009 91.3394 6.43322e-007 -1.40546e-007 1.01907 -2.38418e-007 -1.42109e-014 -4.8036e-008 7.66779e-009 -1.29877e-007 -21.9924 5.60957 13.9513 -122.96 14.169 -169.361 34.2647 -4.88498e-014 -3.8147e-006 -103.95 7.24216e-006 -2.04794e-005 20.4429 5.72205e-006 7.62939e-006 109.705 1.04214e-005 -1.05565e-005 16.5673 -1.90735e-006 -3.8147e-006 -32.8026 -4.82678 -6.06725 9.18784 6.9484 -1.5739e-009 89.9962 -1.28505e-006 1.45825e-006 1.01907 8.21566e-015 0 179.96 -1.00575e-005 -1.46144e-005 39.3396 -0.0248222 -0.00166893 4.50335 3.37643 -1.34114 34.2893 -15.5917 0.000302822 26.8428 -0.669072 -1.20662 -21.129 -2.94583 -5.78313 152.055 -37.1791 128.921 17.4439 7.6294e-006 -8.52651e-014 44.9443 15.7513 -106.747 30.6251 -7.6294e-006 2.4869e-014 -13.4882 -1.79745e-005 -4.89321e-006 31.204 -7.6294e-006 -5.72204e-006 -88.1792 75.0961 48.5722 22.1039 0.255849 -0.379044 -3.32361 9.95714 -44.5779 12.0552 3.81471e-006 5.96045e-007 179.96 -9.55129e-006 -1.24896e-005 -20.868 -3.09079 6.59895 154.289 40.9144 -102.804 17.4439 7.6294e-006 2.13163e-014 38.1936 -41.4528 83.0244 30.6251 -7.10544e-015 0 -89.4387 -1.8437e-006 -9.24077e-006 31.2039 3.8147e-006 3.81469e-006 -156.916 -73.4378 -162.586 22.1039 0.255847 0.379024 -10.7625 6.07328 10.0774 12.0552 3.55272e-015 7.62938e-006 1.50421e-007 3.32775e-007 -6.75324e-007 14.9382 -0.0102158 3.05683e-010 12.2968 -0.108297 6.98268 14.3577 0.505509 2.316e-007 28.3062 0.97831 2.92044 3.76991 -2.3563 12.3444 -172.18 32.7388 -89.0674 3.76993 -2.35626 -12.3442 5.68163 30.6454 98.7068 11.8395 10.8645 2.84974e-007 -175.115 -3.83333 178.913 9.73751 3.21675 5.91208e-007 -2.85749 2.25393e-007 6.37004e-008 2.55462 -1.1059 -0.153772 4.77834 -2.94618 -1.72235 6.93463 -0.751786 -5.03567e-007 -4.61307 -7.45278 9.23651 13.0966 1.42109e-014 -1.19209e-007 -12.2771 -0.674755 -7.26538 25.6158 0 -1.1921e-007 1.47529e-007 -1.35792e-008 -4.40031e-008 
-42.7078 60.005 2.81529 93.6155 -81.9826 -177.564 -3.8147e-006 2.38419e-007 -7.10543e-015 -94.9174 -8.94777 -83.9625 -18.6385 -9.591 -1.77636e-015 -49.5222 0.325175 -178.401 20.9743 7.6294e-006 4.76837e-007 28.6406 0.810104 -5.05059 20.3015 1.42109e-014 -1.77636e-015 12.3475 2.90951 2.16407 21.6394 -5.68434e-014 1.77636e-015 0.239589 -0.353206 11.5975 21.704 -4.09818 2.23778 -1.53497 8.19277 0.755276 -21.5473 0.727313 -19.9308 -70.5452 -7.19948 172.419 34.2647 -1.82609e-012 0.00122643 -48.6014 6.0281e-006 6.69691e-006 20.4429 -7.6294e-006 0.000873566 71.1907 -5.40306e-007 1.09163e-006 16.5673 0 1.06581e-014 3.36932 5.77325 7.84982 9.18784 6.9484 2.39268e-009 91.3394 6.44735e-007 -1.40949e-007 1.01907 -2.38419e-007 0 -4.8036e-008 7.66779e-009 -1.29877e-007 -21.9924 5.59436 13.924 -122.969 14.2447 -169.374 34.2647 -4.52971e-014 -3.8147e-006 -103.884 7.22752e-006 -2.04772e-005 20.4429 5.72205e-006 7.62939e-006 109.688 1.04214e-005 -1.05443e-005 16.5673 -1.90735e-006 -3.8147e-006 -32.8718 -4.83395 -5.99963 9.18784 6.9484 -1.98162e-009 89.9962 -1.2891e-006 1.46161e-006 1.01907 2.26486e-014 1.42109e-014 179.96 -1.00575e-005 -1.46144e-005 39.3396 -0.0248222 -0.00166893 4.58151 3.37396 -1.35389 34.2893 -15.5917 0.000302822 27.0314 -0.653048 -1.4024 -21.1585 -2.87635 -5.70962 151.741 -37.0713 128.642 17.4439 7.6294e-006 -7.81597e-014 44.8816 15.7455 -106.643 30.6251 -7.6294e-006 1.06581e-014 -13.8081 -1.78581e-005 -5.5035e-006 31.204 -7.6294e-006 -5.72204e-006 -87.9573 75.0774 48.4605 22.1039 0.255849 -0.379044 -3.32361 9.95714 -44.5779 12.0552 3.81471e-006 5.96045e-007 179.96 -9.55128e-006 -1.24895e-005 -20.8549 -3.01828 6.67145 154.252 41.0122 -102.959 17.4439 7.6294e-006 5.68434e-014 38.206 -41.6599 83.0102 30.6251 0 -1.42108e-014 -89.2747 -1.87734e-006 -9.23036e-006 31.2039 3.8147e-006 3.81469e-006 -157.044 -73.4252 -162.6 22.1039 0.255847 0.379024 -10.7625 6.07328 10.0774 12.0552 1.77636e-014 7.62938e-006 1.50421e-007 3.32775e-007 -6.75324e-007 14.9382 -0.0102158 3.17014e-010 12.239 -0.0951476 7.07589 14.3577 0.505509 2.31368e-007 27.9061 0.951042 2.85519 3.76991 -2.3563 12.3444 -172.168 32.5009 -88.9109 3.76993 -2.35626 -12.3442 5.72232 30.4276 98.831 11.8395 10.8645 2.78085e-007 -175.256 -3.79537 178.903 9.73751 3.21675 5.8994e-007 -2.85749 2.21999e-007 6.25749e-008 2.55462 -1.1059 -0.153772 4.77834 -2.94618 -1.72235 6.93463 -0.751786 -5.03271e-007 -4.84901 -7.37324 9.05431 13.0966 -1.42109e-014 -1.19209e-007 -12.206 -0.690426 -7.41993 25.6158 0 -1.1921e-007 1.47529e-007 -1.35792e-008 -4.40031e-008 
-42.7874 60.0255 2.77228 93.6155 -81.9826 -177.564 -3.8147e-006 2.38419e-007 -7.10543e-015 -94.904 -9.03401 -83.8883 -18.6385 -9.591 7.10543e-015 -49.26 0.325074 -177.785 20.9743 7.6294e-006 4.76837e-007 28.5464 0.782631 -5.62491 20.3015 -1.42109e-014 3.55271e-015 12.9863 2.95627 1.23031 21.6394 -2.84217e-014 -3.55271e-015 0.792019 -0.311621 10.8072 21.6946 -4.13183 2.26517 -1.65339 8.19153 0.760332 -21.5439 0.713224 -19.9585 -70.653 -7.10794 172.35 34.2647 -2.72138e-012 0.00122643 -48.7762 5.45043e-006 7.20653e-006 20.4429 -7.6294e-006 0.000873566 71.3057 -5.4701e-007 1.09506e-006 16.5673 -1.42109e-014 3.55271e-015 3.28179 5.79136 7.8565 9.18784 6.9484 2.41279e-009 91.3394 6.46334e-007 -1.41115e-007 1.01907 -2.38418e-007 0 -4.8036e-008 7.66779e-009 -1.29877e-007 -21.9924 5.57944 13.8973 -122.978 14.3189 -169.387 34.2647 -4.70735e-014 -3.8147e-006 -103.82 7.21272e-006 -2.04751e-005 20.4429 5.72205e-006 7.62939e-006 109.664 1.04222e-005 -1.05318e-005 16.5673 -1.90735e-006 -3.8147e-006 -32.9396 -4.84106 -5.93333 9.18784 6.9484 -2.37044e-009 89.9962 -1.29189e-006 1.46482e-006 1.01907 3.33067e-016 1.42109e-014 179.96 -1.00575e-005 -1.46144e-005 39.3396 -0.0248222 -0.00166893 4.66147 3.37171 -1.36308 34.2893 -15.5917 0.000302822 27.2305 -0.642303 -1.59689 -21.1875 -2.80822 -5.63754 151.417 -36.9629 128.354 17.4439 7.6294e-006 -8.52651e-014 44.8207 15.7606 -106.536 30.6251 -7.6294e-006 1.06581e-014 -14.1011 -1.78013e-005 -5.84283e-006 31.204 -7.6294e-006 -5.72204e-006 -87.7401 75.0589 48.3514 22.1039 0.255849 -0.379044 -3.32361 9.95714 -44.5779 12.0552 3.81471e-006 5.96045e-007 179.96 -9.55127e-006 -1.24895e-005 -20.8421 -2.94718 6.74254 154.202 41.1148 -103.105 17.4439 7.6294e-006 2.13163e-014 38.2196 -41.8679 82.9913 30.6251 7.10544e-015 0 -89.1094 -2.866e-006 -9.20499e-006 31.2039 3.8147e-006 3.81469e-006 -157.17 -73.4128 -162.614 22.1039 0.255847 0.379024 -10.7625 6.07328 10.0774 12.0552 1.06582e-014 7.62938e-006 1.50421e-007 3.32775e-007 -6.75324e-007 14.9382 -0.0102158 3.28328e-010 12.1893 -0.0823061 7.16391 14.3577 0.505509 2.31125e-007 27.493 0.922615 2.78457 3.76991 -2.3563 12.3444 -172.155 32.2676 -88.7577 3.76993 -2.35626 -12.3442 5.76263 30.2141 98.9527 11.8395 10.8645 2.70473e-007 -175.395 -3.75812 178.894 9.73751 3.21675 5.8843e-007 -2.85749 2.18456e-007 6.12343e-008 2.55462 -1.1059 -0.153772 4.77834 -2.94618 -1.72235 6.93463 -0.751786 -5.02918e-007 -5.08007 -7.29453 8.87601 13.0966 -1.42109e-014 -1.19209e-007 -12.1364 -0.705977 -7.57146 25.6158 -1.42109e-014 -1.1921e-007 1.47529e-007 -1.35792e-008 -4.40031e-008 
